<svg width="14" height="14" viewBox="0 0 14 14" fill="none" xmlns="http://www.w3.org/2000/svg">
<path d="M3.125 13.9688V4.625H0.21875V13.9688H3.125ZM1.65625 3.375C2.59375 3.375 3.34375 2.59375 3.34375 1.65625C3.34375 0.75 2.59375 0 1.65625 0C0.75 0 0 0.75 0 1.65625C0 2.59375 0.75 3.375 1.65625 3.375ZM13.9688 13.9688H14V8.84375C14 6.34375 13.4375 4.40625 10.5 4.40625C9.09375 4.40625 8.15625 5.1875 7.75 5.90625H7.71875V4.625H4.9375V13.9688H7.84375V9.34375C7.84375 8.125 8.0625 6.96875 9.5625 6.96875C11.0625 6.96875 11.0938 8.34375 11.0938 9.4375V13.9688H13.9688Z" fill="white"/>
</svg>
