<svg width="17" height="17" viewBox="0 0 17 17" fill="none" xmlns="http://www.w3.org/2000/svg">
<path d="M8.33105 4.02637C5.95605 4.02637 4.06347 5.95606 4.06347 8.29395C4.06347 10.6689 5.95605 12.5615 8.33105 12.5615C10.669 12.5615 12.5987 10.6689 12.5987 8.29395C12.5987 5.95606 10.669 4.02637 8.33105 4.02637ZM8.33105 11.0771C6.80957 11.0771 5.54785 9.85254 5.54785 8.29395C5.54785 6.77247 6.77246 5.54786 8.33105 5.54786C9.85255 5.54786 11.0772 6.77247 11.0772 8.29395C11.0772 9.85254 9.85255 11.0771 8.33105 11.0771ZM13.7491 3.87793C13.7491 3.32129 13.3038 2.87598 12.7471 2.87598C12.1905 2.87598 11.7452 3.32129 11.7452 3.87793C11.7452 4.43457 12.1905 4.87989 12.7471 4.87989C13.3038 4.87989 13.7491 4.43457 13.7491 3.87793ZM16.5694 4.87989C16.4952 3.54395 16.1983 2.35645 15.2334 1.39161C14.2686 0.426755 13.0811 0.129883 11.7452 0.0556643C10.3721 -0.0185548 6.25293 -0.0185548 4.87988 0.0556643C3.54394 0.129883 2.39355 0.426755 1.3916 1.39161C0.426757 2.35645 0.129882 3.54395 0.0556635 4.87989C-0.0185545 6.25292 -0.0185545 10.372 0.0556635 11.7451C0.129882 13.081 0.426757 14.2314 1.3916 15.2334C2.39355 16.1982 3.54394 16.4951 4.87988 16.5693C6.25293 16.6435 10.3721 16.6435 11.7452 16.5693C13.0811 16.4951 14.2686 16.1982 15.2334 15.2334C16.1983 14.2314 16.4952 13.081 16.5694 11.7451C16.6436 10.372 16.6436 6.25292 16.5694 4.87989ZM14.7881 13.1923C14.5284 13.9345 13.9346 14.4912 13.2295 14.788C12.1163 15.2334 9.51855 15.122 8.33105 15.122C7.10644 15.122 4.50878 15.2334 3.43261 14.788C2.69043 14.4912 2.13378 13.9345 1.83691 13.1923C1.3916 12.1162 1.50293 9.51855 1.50293 8.29395C1.50293 7.10645 1.3916 4.50879 1.83691 3.39551C2.13378 2.69043 2.69043 2.13379 3.43261 1.83692C4.50878 1.39161 7.10644 1.50293 8.33105 1.50293C9.51855 1.50293 12.1163 1.39161 13.2295 1.83692C13.9346 2.09668 14.4913 2.69043 14.7881 3.39551C15.2334 4.50879 15.1221 7.10645 15.1221 8.29395C15.1221 9.51855 15.2334 12.1162 14.7881 13.1923Z" fill="white"/>
</svg>
