<svg width="18" height="4" viewBox="0 0 18 4" fill="none" xmlns="http://www.w3.org/2000/svg">
<path d="M1.75 0.75C2.30229 0.75 2.75 1.19771 2.75 1.75C2.75 2.30228 2.30229 2.75 1.75 2.75C1.19771 2.75 0.75 2.30228 0.75 1.75C0.75 1.19771 1.19771 0.75 1.75 0.75Z" stroke="#FFCA42" stroke-width="1.5"/>
<path d="M8.75 0.75C9.30229 0.75 9.75 1.19771 9.75 1.75C9.75 2.30228 9.30229 2.75 8.75 2.75C8.19771 2.75 7.75 2.30228 7.75 1.75C7.75 1.19771 8.19771 0.75 8.75 0.75Z" stroke="#FFCA42" stroke-width="1.5"/>
<path d="M15.75 0.75C16.3023 0.75 16.75 1.19771 16.75 1.75C16.75 2.30228 16.3023 2.75 15.75 2.75C15.1977 2.75 14.75 2.30228 14.75 1.75C14.75 1.19771 15.1977 0.75 15.75 0.75Z" stroke="#FFCA42" stroke-width="1.5"/>
</svg>
