<svg width="13" height="13" viewBox="0 0 13 13" fill="none" xmlns="http://www.w3.org/2000/svg">
<path d="M2.73438 12.2227V4.04688H0.191406V12.2227H2.73438ZM1.44922 2.95313C2.26953 2.95313 2.92578 2.26954 2.92578 1.44922C2.92578 0.656246 2.26953 0 1.44922 0C0.65625 0 0 0.656246 0 1.44922C0 2.26954 0.65625 2.95313 1.44922 2.95313ZM12.2227 12.2227H12.25V7.73828C12.25 5.55078 11.7578 3.85547 9.1875 3.85547C7.95703 3.85547 7.13672 4.53907 6.78125 5.16797H6.75391V4.04688H4.32031V12.2227H6.86328V8.17578C6.86328 7.10938 7.05469 6.09766 8.36719 6.09766C9.6797 6.09766 9.707 7.30078 9.707 8.25782V12.2227H12.2227Z" fill="#141414"/>
</svg>
