<svg width="13" height="13" viewBox="0 0 13 13" fill="none" xmlns="http://www.w3.org/2000/svg">
<path d="M6.33333 12.1667C9.55499 12.1667 12.1667 9.55499 12.1667 6.33333C12.1667 3.11167 9.55499 0.5 6.33333 0.5C3.11167 0.5 0.5 3.11167 0.5 6.33333C0.5 9.55499 3.11167 12.1667 6.33333 12.1667Z" stroke="#FFCA42"/>
<path d="M6.33346 12.6667C5.50176 12.6667 4.67816 12.5029 3.90976 12.1846C3.14136 11.8663 2.44316 11.3998 1.85506 10.8117C1.26696 10.2236 0.800459 9.52539 0.482159 8.75699C0.163859 7.9886 6.10352e-05 7.16504 6.10352e-05 6.33333C6.10352e-05 5.50163 0.163859 4.67807 0.482159 3.90967C0.800459 3.14128 1.26696 2.44309 1.85506 1.85499C2.44316 1.26689 3.14136 0.800375 3.90976 0.482096C4.67816 0.163816 5.50176 -1.09065e-07 6.33346 0V6.33333V12.6667Z" fill="#FFCA42"/>
</svg>
